#!OML:ASF E:/inclinewalkrobotboard/Project1/Captureday1/Session1/subject1.ASF
:FULLY-SPECIFIED
:DEGREES
263
root 0 0 0 76.31433371126789 -27.425742831012364 -45.45482998821364
lowerback -11.190034791481814 7.863092500423944 9.566402503409947
upperback -20.513821984195125 10.074306811915042 2.957113344374291
thorax -15.451874693781402 3.9701420729625205 -1.713413434964167
lowerneck -7.548059643128582 9.771087941479566 5.411947361041738
upperneck 11.715733997064088 11.678479389699966 7.287569702445074
head 4.807573070676112 6.266580674309282 2.076911908068802
rclavicle 6.094476127292891E-15 -3.394738070375351E-15
rhumerus 108.58830836722856 -24.891779646540108 -115.12003814433446
rradius 0.7812362902229602
rwrist 69.66289028803841
rhand 13.774079405697297 -12.62076578288787
rfingers 7.125020000000017
rthumb 38.76815579109689 -38.50472295988554
lclavicle -6.668987200701057E-16 1.5388985208331198E-15
lhumerus -0.21799333408546318 25.046369055039225 1.80322320164845
lradius 9.238111440617505
lwrist -41.49149123556545
lhand 12.076339444628724 36.713182597817
lfingers 7.125020000000047
lthumb 37.18510563879741 63.811329561135636
rfemur 183.04306030874 -219.78239061067546 -192.1017614148552
rtibia 67.29001591180673
rfoot -23.178154099805944 -9.811358515804251
rtoes 49.93805644005067
lfemur -109.5859822055294 35.779009267556056 -24.212679053884084
ltibia 68.3377307153649
lfoot -38.19679047753014 35.57044438146866
ltoes 38.86564027416504
264
root 0 0 0 76.31433334492937 -27.42574723757399 -45.454840088123134
lowerback -11.190021899428285 7.863093844507462 9.566405717221505
upperback -20.51381697169494 10.074308475402322 2.9571102765106914
thorax -15.451876218723164 3.9701423194963645 -1.713418910782111
lowerneck -7.548068488296283 9.771088872656957 5.411947544546325
upperneck 11.715725001743376 11.678480660871738 7.287569147146399
head 4.807571385765924 6.266581353215632 2.0769119026635288
rclavicle 6.0944523292801556E-15 -3.3948167549318314E-15
rhumerus 108.5900066634043 -24.892247013398247 -115.12137276059974
rradius 0.7811526154190211
rwrist 69.66342197821582
rhand 13.773405470131156 -12.620482855425491
rfingers 7.125020000000017
rthumb 38.76751978412963 -38.504571602404866
lclavicle -6.669571446965233E-16 1.5388708404958055E-15
lhumerus -0.21767608205395028 25.04636575037539 1.8031355923274788
lradius 9.23812307776754
lwrist -41.49145043368112
lhand 12.076328109305054 36.713203854417415
lfingers 7.125020000000047
lthumb 37.18509449950213 63.811351682979634
rfemur 183.04316284217214 -219.78250153743465 -192.10188155727775
rtibia 67.2899558292479
rfoot -23.178341185684182 -9.811123029355123
rtoes 49.9380984359284
lfemur -109.5859668715644 35.77901772117304 -24.212643968009647
ltibia 68.33773296187086
lfoot -38.196837369265666 35.57042058808808
ltoes 38.86562584294666
265
root 0 0 0 76.31433286696674 -27.42575176928353 -45.45484956351846
lowerback -11.190009487160978 7.863095124882895 9.566408660265743
upperback -20.513812087631273 10.074310054115742 2.957107258082615
thorax -15.451877633387763 3.9701425570237907 -1.713424169067328
lowerneck -7.548077081391774 9.77108976342358 5.411947740589771
upperneck 11.715716397918575 11.678481871689458 7.287568585623001
head 4.807569792111163 6.26658200214914 2.0769118910098134
rclavicle 6.094427844484193E-15 -3.3948919655624687E-15
rhumerus 108.5916191105628 -24.89269135389508 -115.12262960425134
rradius 0.7810771972592079
rwrist 69.66392016673699
rhand 13.772767833213212 -12.620215411222214
rfingers 7.125020000000017
rthumb 38.766918006267915 -38.504428650593354
lclavicle -6.670132957656264E-16 1.5388432834317551E-15
lhumerus -0.21737458249324781 25.046364388326392 1.803053995922177
lradius 9.238133798998671
lwrist -41.49141208242597
lhand 12.076315218311787 36.71322317352232
lfingers 7.125020000000047
lthumb 37.18508188813392 63.81137214414835
rfemur 183.04326422502436 -219.78260242028904 -192.1019908733751
rtibia 67.28990796471044
rfoot -23.178486896773947 -9.810912217462795
rtoes 49.93813023561539
lfemur -109.58594230342283 35.77902419555533 -24.212607096324447
ltibia 68.33772234980616
lfoot -38.196893181675264 35.57039793975872
ltoes 38.86561529069473
266
root 0 0 0 76.31433230252617 -27.42575636251209 -45.454858446418456
lowerback -11.189997576020511 7.863096342013407 9.566411356849304
upperback -20.513807351619807 10.074311549792892 2.957104306811436
thorax -15.451878945663177 3.9701427851059767 -1.7134292035033347
lowerneck -7.548085392763996 9.771090613341729 5.411947945086406
upperneck 11.715708189483554 11.678483022552546 7.287568024044244
head 4.807568286969971 6.266582620888322 2.0769118743750097
rclavicle 6.0944030192051714E-15 -3.394963679537691E-15
rhumerus 108.59314734613712 -24.8931130002097 -115.12381198271684
rradius 0.7810091658517244
rwrist 69.66438666508901
rhand 13.772165408045101 -12.61996294600988
rfingers 7.125020000000017
rthumb 38.76634943699478 -38.50429381060023
lclavicle -6.670670963469858E-16 1.5388160733948536E-15
lhumerus -0.21708858778267093 25.046364618316396 1.8029780186282665
lradius 9.238143679279169
lwrist -41.491376066759045
lhand 12.07630117806612 36.71324074452619
lfingers 7.125020000000047
lthumb 37.18506819297295 63.811391072052174
rfemur 183.04336376482348 -219.78269423675312 -192.10209041137352
rtibia 67.28987045964782
rfoot -23.178597675233487 -9.810723348447125
rtoes 49.93815346325559
lfemur -109.58591045118696 35.779029003344796 -24.212569104061757
ltibia 68.3377013858034
lfoot -38.19695574420746 35.57037642436066
ltoes 38.86560798439406
